<svg id="Layer_1" data-name="Layer 1" xmlns="http://www.w3.org/2000/svg" xmlns:xlink="http://www.w3.org/1999/xlink" viewBox="0 0 2400 1891.9"><defs><style>.cls-1{fill:none;}.cls-2{clip-path:url(#clip-path);}.cls-3{fill:#522651;}.cls-4{fill:#dc6413;}</style><clipPath id="clip-path"><rect class="cls-1" x="111" y="85.2" width="2197.2" height="1735.61"/></clipPath></defs><g class="cls-2"><path class="cls-3" d="M2308.2,1772.7h-21.7l-5.6,48.1h18Zm-82.3-64.2c0-10.2,5-15.3,14.9-15.3h21.7v-16.6h-22.2c-10.9,0-19.3,2.5-25,7.4s-8.5,13.1-8.5,24.5v4.9c0,11.5,2.8,19.7,8.5,24.7s14.1,7.3,25,7.3h22.2v-16.5h-21.7c-4.5,0-8.1-1.2-10.8-3.4s-4.1-6.3-4.1-12.1Zm-47.3,88.4V1676.6h-21.1v102h-59v18.3Zm-54.8-120.3h-19.1l-5.8,43.9h15.6ZM1990.4,1728c-11.1,0-16.6-6.2-16.6-18.6,0-5.8,1.4-10.4,4.3-13.8s7-5,12.5-5,9.6,1.7,12.2,5,4,7.8,4,13.8c0,12.4-5.5,18.6-16.4,18.6m36.6-40.1a133.5,133.5,0,0,0-19.4-10.5,47.1,47.1,0,0,0-17.6-3.3c-11.1,0-20.1,3.1-26.8,9.4s-10.1,15-10.1,25.9,3.3,19.8,10,25.9,15.8,9.2,27.3,9.2,19.1-2.9,25.6-8.8,9.9-13.9,9.9-23.9a26.1,26.1,0,0,0-.2-3.5l36.9,22.4-102.1,45.7v22.5l119.4-56.6v-20.9Z"/></g><path class="cls-4" d="M1924.9,1792h-5v4.9h5Zm-13.7,0h-4.9v4.9h4.9Zm-13.6,0h-5v4.9h5Zm-13.7,0H1879v4.9h4.9Zm-13.6,0h-5v4.9h5Zm-13.7,0h-4.9v4.9h4.9Zm-13.6,0h-5v4.9h5Zm-13.7,0h-4.9v4.9h4.9Zm95.6-13.6h-5v4.9h5Zm-95.6,0h-4.9v4.9h4.9Zm95.6-13.7h-5v4.9h5Zm-54.6,0h-5v4.9h5Zm-41,0h-4.9v4.9h4.9Zm95.6-13.6h-5v4.9h5Zm-95.6,0h-4.9v4.9h4.9Zm95.6-13.7h-5v4.9h5Zm-54.6,0h-5v4.9h5Zm-41,0h-4.9v4.9h4.9Zm95.6-13.6h-5v4.9h5Zm-27.3,0h-5v4.9h5Zm-13.7,0H1879v4.9h4.9Zm-13.6,0h-5v4.9h5Zm-41,0h-4.9v4.9h4.9Zm95.6-13.7h-5v4.9h5Zm-27.3,0h-5v4.9h5Zm-68.3,0h-4.9v4.9h4.9Zm95.6-13.6h-5v4.9h5Zm-27.3,0h-5v4.9h5Zm-13.7,0H1879v4.9h4.9Zm-13.6,0h-5v4.9h5Zm-13.7,0h-4.9v4.9h4.9Zm-27.3,0h-4.9v4.9h4.9Zm95.6-13.7h-5v4.9h5Zm-95.6,0h-4.9v4.9h4.9Zm95.6-13.6h-5v4.9h5Zm-13.7,0h-4.9v4.9h4.9Zm-13.6,0h-5v4.9h5Zm-13.7,0H1879v4.9h4.9Zm-13.6,0h-5v4.9h5Zm-13.7,0h-4.9v4.9h4.9Zm-13.6,0h-5v4.9h5Zm-13.7,0h-4.9v4.9h4.9Z"/><g class="cls-2"><path class="cls-3" d="M1680.8,1772.7h-21.7l-5.6,48.1h18Zm-82.3-64.2c0-10.2,5-15.3,14.9-15.3h21.7v-16.6h-22.2c-10.9,0-19.2,2.5-24.9,7.4s-8.6,13.1-8.6,24.5v4.9c0,11.5,2.9,19.7,8.6,24.7s14,7.3,24.9,7.3h22.2v-16.5h-21.7a16.8,16.8,0,0,1-10.8-3.4c-2.7-2.2-4.1-6.3-4.1-12.1Zm-47.3,88.4V1676.6h-21.1v102h-59v18.3Zm-54.8-120.3h-19.1l-5.8,43.9h15.6Zm-145,60.6,70-36.7v72.2Zm-20.8,10.8,91.9,48.9h20V1676.6h-20l-91.9,49.5Zm-136.5,24.7h-21.7l-5.6,48.1h18Zm-82.3-64.2q0-15.3,15-15.3h21.6v-16.6h-22.2c-10.9,0-19.2,2.5-24.9,7.4s-8.6,13.1-8.6,24.5v4.9c0,11.5,2.9,19.7,8.6,24.7s14,7.3,24.9,7.3h22.2v-16.5h-21.6a17.1,17.1,0,0,1-10.9-3.4c-2.7-2.2-4.1-6.3-4.1-12.1Zm-47.3,88.4V1676.6h-21.1v102h-59v18.3Zm-110.3-72.2c0,8.2-2,14.9-5.9,20s-10,7.6-18.3,7.6-15.4-2.5-19.4-7.5-5.9-11.7-5.9-20.1v-7.3c0-17.2,8.4-25.8,25.3-25.8,8.1,0,14.2,2.5,18.2,7.5s6,11.7,6,20.1ZM930,1673.9c-15.3,0-26.8,3.9-34.7,11.7s-11.7,18.7-11.7,32.5v78.8h21.1v-39.3c7,8.3,16.9,12.4,29.5,12.4s23.5-4.2,30.6-12.6,10.5-19.4,10.5-33.3v-4.3q0-20.8-11.7-33.3T930,1673.9m-97.4,67.9c0,11.5-2.9,20.5-8.9,27s-14.7,9.8-26.2,9.8H756v18.3h42.2c18.2,0,32-4.9,41.4-14.9s14.1-23.6,14.1-40.9v-8.6c0-17.3-4.7-31-14.1-40.9s-23.2-15-41.4-15H756V1695h41.5c11.7,0,20.4,3.3,26.3,9.7s8.8,15.6,8.8,27.1Zm-217.1-45.2H593.8v23h21.7Zm0,77.4H593.8v22.9h21.7ZM540,1732.1c-4.2,0-7.2-.9-9-2.9s-2.9-5.1-3.1-9.6,1-7.5,2.9-9.8,4.9-3.3,9.2-3.3,7.8,1.1,9.5,3.3,2.7,5.4,2.7,9.6-1,7.7-3,9.7-5,3-9.2,3m4.9-41.3c-7.8,0-13.4,1.8-17,5.3v-19.5H508.5v41.5c0,10.1,2.5,17.5,7.5,22.3s13,7.2,23.8,7.2,19-2.6,24-7.7,7.5-12.2,7.5-21-2-15.8-6-20.7-10.8-7.4-20.4-7.4m-52.6,2.4v-16.6H473.7c-9.9,0-17.5,2-22.7,5.9s-7.9,10.8-7.9,20.3,2.4,16.2,7.2,20.2,12.3,6.1,22.5,6.2v16.2h19.5v-32H475.2c-4.3,0-7.5-.7-9.6-2s-3.2-4.1-3.2-8.2,1.1-6.7,3.3-8,5.3-2,9.5-2Zm-92.1,58.6c0,9-2.3,15.7-6.8,20.1s-10.9,6.7-19.4,6.7h-2.6q-22.2-.7-22.2-27v-3.3c0-9.1,2.2-15.9,6.5-20.4s10.6-6.9,19-6.9q25.5,0,25.5,27.3Zm-25.5-48.2c-14.8,0-26.3,3.8-34.4,11.3s-12.2,18.6-12.2,32.9v2c0,13.3,3.6,22.9,10.7,28.8H295.5v18.3h78.8c15.2,0,26.8-4,34.9-12.1s12.1-19.2,12.1-33.5v-2.4c0-14.3-4.1-25.5-12.3-33.4s-19.6-11.9-34.3-11.9m-210.4-10.4v-16.6H145.7c-9.9,0-17.5,2-22.7,5.9s-7.8,10.8-7.8,20.3,2.3,16.2,7.1,20.2,12.3,6.1,22.5,6.2v16.2h19.5v-32H147.2c-4.3,0-7.4-.7-9.6-2s-3.2-4.1-3.2-8.2,1.1-6.7,3.3-8,5.4-2,9.5-2Zm90.5,61.1c0,8.4-2,15.1-6.1,20.2s-10,7.5-18.2,7.5c-16.8,0-25.3-8.6-25.3-25.8v-7.3q0-12.6,6-20.1c3.9-5.1,10.4-7.6,19.3-7.6s14.4,2.6,18.3,7.7,6,11.7,6,20Zm-20.1-50.7c-12.6,0-22.4,4.1-29.5,12.3v-39.3H184.1v78.8c0,13.9,3.9,24.7,11.8,32.5s19.4,11.8,34.6,11.8,25.8-4.2,33.6-12.6,11.8-19.5,11.8-33.3v-4.4c0-13.8-3.6-24.9-10.6-33.3s-17.2-12.5-30.6-12.5"/><path class="cls-3" d="M1894.5,1476.1H1842v16.6h52.5Zm-155.7-34.5c-17.8,0-30.9,3.9-39.2,11.6s-12.5,18.5-12.5,32.2v3.5c0,14.1,4.3,24.9,12.8,32.6s21.6,11.4,39.3,11.4h26.4v-18.3h-26c-11.2,0-19.2-2.3-24.1-6.7s-7.2-10.7-7.2-18.8v-3.8q0-12.3,7.2-18.9c4.9-4.4,12.9-6.6,24.1-6.6h82.8v-18.2Zm-163.2,72.6,35.5-79.5,34,79.5Zm-23.7.7v18h117.8v-18l-46.8-102.3h-22.6Zm-133.6-6.2h-21.6l-5.7,48.1h18Zm-47.7-32.6h-52.4v16.6h52.4Zm-106.1-8c-4.1,0-7.1-.9-9-2.9s-2.9-5.1-3-9.6,1-7.5,2.8-9.8,5-3.3,9.2-3.3,7.8,1.1,9.6,3.3,2.6,5.4,2.6,9.6-.9,7.7-2.9,9.7-5,3-9.3,3m4.9-41.3c-7.7,0-13.4,1.8-16.9,5.3v-19.5H1233v41.5c0,10.1,2.6,17.5,7.6,22.3s12.9,7.2,23.7,7.2,19.1-2.6,24.1-7.7,7.4-12.2,7.4-21-2-15.8-6-20.7-10.8-7.4-20.4-7.4m-52.6,2.4v-16.6h-18.5c-10,0-17.6,2-22.8,5.9s-7.8,10.8-7.8,20.3,2.4,16.2,7.2,20.2,12.3,6.1,22.5,6.2v16.2h19.4v-32h-17.1c-4.2,0-7.4-.7-9.5-2s-3.2-4.1-3.2-8.2,1.1-6.7,3.3-8,5.3-2,9.4-2Z"/></g><path class="cls-4" d="M1144.4,1528h-4.9v4.9h4.9Zm-13.6,0h-5v4.9h5Zm-13.7,0h-4.9v4.9h4.9Zm-13.6,0h-5v4.9h5Zm-13.7,0h-4.9v4.9h4.9Zm-13.6,0h-5v4.9h5Zm-13.7,0h-4.9v4.9h4.9Zm-13.7,0h-4.9v4.9h4.9Zm95.6-13.6h-4.9v4.9h4.9Zm-95.6,0h-4.9v4.9h4.9Zm95.6-13.7h-4.9v4.9h4.9Zm-54.6,0h-4.9v4.9h4.9Zm-41,0h-4.9v4.9h4.9Zm95.6-13.6h-4.9v4.9h4.9Zm-95.6,0h-4.9v4.9h4.9Zm95.6-13.7h-4.9v4.9h4.9Zm-54.6,0h-4.9v4.9h4.9Zm-41,0h-4.9v4.9h4.9Zm95.6-13.6h-4.9v4.9h4.9Zm-27.3,0h-4.9v4.9h4.9Zm-13.6,0h-5v4.9h5Zm-13.7,0h-4.9v4.9h4.9Zm-41,0h-4.9v4.9h4.9Zm95.6-13.7h-4.9v4.9h4.9Zm-27.3,0h-4.9v4.9h4.9Zm-68.3,0h-4.9v4.9h4.9Zm95.6-13.6h-4.9v4.9h4.9Zm-27.3,0h-4.9v4.9h4.9Zm-13.6,0h-5v4.9h5Zm-13.7,0h-4.9v4.9h4.9Zm-13.6,0h-5v4.9h5Zm-27.4,0h-4.9v4.9h4.9Zm95.6-13.7h-4.9v4.9h4.9Zm-95.6,0h-4.9v4.9h4.9Zm95.6-13.6h-4.9v4.9h4.9Zm-13.6,0h-5v4.9h5Zm-13.7,0h-4.9v4.9h4.9Zm-13.6,0h-5v4.9h5Zm-13.7,0h-4.9v4.9h4.9Zm-13.6,0h-5v4.9h5Zm-13.7,0h-4.9v4.9h4.9Zm-13.7,0h-4.9v4.9h4.9Z"/><g class="cls-2"><path class="cls-3" d="M987.9,1468.1c-4.2,0-7.2-.9-9-2.9s-2.9-5.1-3-9.6.9-7.5,2.8-9.8,4.9-3.3,9.2-3.3,7.8,1.1,9.5,3.3,2.7,5.4,2.7,9.6-1,7.7-2.9,9.7-5.1,3-9.3,3m4.9-41.3c-7.8,0-13.4,1.8-16.9,5.3v-19.5H956.4v41.5c0,10.1,2.5,17.5,7.5,22.3s13,7.2,23.8,7.2,19-2.6,24-7.7,7.5-12.2,7.5-21-2-15.8-6-20.7-10.8-7.4-20.4-7.4m-52.6,2.4v-16.6H921.6c-9.9,0-17.5,2-22.7,5.9s-7.9,10.8-7.9,20.3,2.4,16.2,7.2,20.2,12.3,6.1,22.5,6.2v16.2h19.5v-32H923.1c-4.3,0-7.5-.7-9.6-2s-3.2-4.1-3.2-8.2,1.1-6.7,3.3-8,5.4-2,9.5-2Zm-144.3-16.6v120.3H817V1431h58.8v-18.4Zm-147.1,96.1H627.1l-5.6,48.1h18Zm-47.7-32.5H548.7v16.5h52.4ZM495,1468.1c-4.1,0-7.1-.9-9-2.9s-2.9-5.1-3-9.6.9-7.5,2.8-9.8,5-3.3,9.2-3.3,7.8,1.1,9.6,3.3,2.6,5.4,2.6,9.6-1,7.7-2.9,9.7-5.1,3-9.3,3m4.9-41.3c-7.8,0-13.4,1.8-16.9,5.3v-19.5H463.5v41.5c0,10.1,2.5,17.5,7.6,22.3s12.9,7.2,23.7,7.2,19.1-2.6,24-7.7,7.5-12.2,7.5-21-2-15.8-6-20.7-10.8-7.4-20.4-7.4m-52.6,2.4v-16.6H428.7c-9.9,0-17.5,2-22.7,5.9s-7.8,10.8-7.8,20.3,2.4,16.2,7.2,20.2,12.2,6.1,22.4,6.2v16.2h19.5v-32H430.2c-4.2,0-7.4-.7-9.6-2s-3.1-4.1-3.1-8.2,1.1-6.7,3.2-8,5.4-2,9.5-2Zm-87.2,9.1v-13.8H321v-11.9H299.9v11.9H286.1v13.8h13.8v28.4h55l-58.7,66.2h27L382,1465v-16.3H321v-10.4Zm-96.6-25.7H244.4l-5.8,43.9h15.6Zm-69.9,48.1c0,8.2-2,14.9-5.9,20s-10.1,7.6-18.3,7.6-15.4-2.5-19.4-7.5-5.9-11.7-5.9-20.1v-7.3c0-17.2,8.4-25.8,25.3-25.8,8.1,0,14.2,2.5,18.2,7.5s6,11.7,6,20.1Zm-24.2-50.8c-15.3,0-26.9,3.9-34.7,11.7s-11.7,18.7-11.7,32.5v78.8h21.1v-39.3c7,8.3,16.9,12.4,29.5,12.4s23.5-4.2,30.6-12.6,10.5-19.4,10.5-33.3v-4.3q0-20.8-11.7-33.3c-7.9-8.4-19-12.6-33.6-12.6"/><path class="cls-3" d="M2143.1,1244.7h-21.7l-5.6,48.1h18Zm-47.7-32.5H2043v16.5h52.4Zm-149.6,24c0,6.2-1.4,10.8-4,13.8s-7.1,4.6-13.3,4.6-9.8-1.6-12.4-4.6-3.8-7.5-3.8-13.5,1.4-10,4.1-13.3,7.1-5,13.2-5q16.2,0,16.2,18m81.5,32.7-62.8-120.3h-26.9l-33.5,54.6a148.6,148.6,0,0,0-9.9,18.5,42.6,42.6,0,0,0-3,16.5c0,10.7,3,18.9,9.2,24.7s15.3,8.8,27.5,8.8,22.3-3.1,28.7-9.2,9.6-14.9,9.6-26.3-2.6-18.3-7.6-24.3-12.5-9-22.5-9a29.4,29.4,0,0,0-11.8,2l24.9-43,53.4,107Zm-182.5-45.1c0,9-2.3,15.7-6.8,20.1s-10.9,6.7-19.4,6.7H1816q-22.2-.7-22.2-27v-3.3c0-9.1,2.2-15.9,6.5-20.4s10.6-6.9,19-6.9q25.5,0,25.5,27.3Zm-25.5-48.2c-14.8,0-26.3,3.8-34.4,11.3s-12.2,18.6-12.2,32.9v2c0,13.3,3.6,22.9,10.7,28.8h-43.3v18.3h78.8c15.2,0,26.8-4,34.9-12.1s12.1-19.2,12.1-33.5v-2.4c0-14.3-4.1-25.5-12.3-33.4s-19.6-11.9-34.3-11.9m-217.9-7h-21.6v23h21.6Zm0,77.4h-21.6v22.9h21.6Zm-80.8-65.5c0-10.2,5-15.3,14.9-15.3h21.7v-16.6H1535c-10.9,0-19.2,2.5-24.9,7.4s-8.6,13.1-8.6,24.5v4.9c0,11.5,2.9,19.7,8.6,24.7s14,7.3,24.9,7.3h22.2v-16.5h-21.7c-4.5,0-8.1-1.2-10.8-3.4s-4.1-6.3-4.1-12.1Z"/></g><path class="cls-4" d="M1476.8,1264h-5v4.9h5Zm-13.7,0h-4.9v4.9h4.9Zm-13.6,0h-5v4.9h5Zm-13.7,0h-4.9v4.9h4.9Zm-13.7,0h-4.9v4.9h4.9Zm-13.6,0h-4.9v4.9h4.9Zm-13.7,0h-4.9v4.9h4.9Zm-13.6,0h-4.9v4.9h4.9Zm95.6-13.6h-5v4.9h5Zm-95.6,0h-4.9v4.9h4.9Zm95.6-13.7h-5v4.9h5Zm-54.7,0h-4.9v4.9h4.9Zm-40.9,0h-4.9v4.9h4.9Zm95.6-13.6h-5v4.9h5Zm-95.6,0h-4.9v4.9h4.9Zm95.6-13.7h-5v4.9h5Zm-54.7,0h-4.9v4.9h4.9Zm-40.9,0h-4.9v4.9h4.9Zm95.6-13.6h-5v4.9h5Zm-27.3,0h-5v4.9h5Zm-13.7,0h-4.9v4.9h4.9Zm-13.7,0h-4.9v4.9h4.9Zm-40.9,0h-4.9v4.9h4.9Zm95.6-13.7h-5v4.9h5Zm-27.3,0h-5v4.9h5Zm-68.3,0h-4.9v4.9h4.9Zm95.6-13.6h-5v4.9h5Zm-27.3,0h-5v4.9h5Zm-13.7,0h-4.9v4.9h4.9Zm-13.7,0h-4.9v4.9h4.9Zm-13.6,0h-4.9v4.9h4.9Zm-27.3,0h-4.9v4.9h4.9Zm95.6-13.7h-5v4.9h5Zm-95.6,0h-4.9v4.9h4.9Zm95.6-13.6h-5v4.9h5Zm-13.7,0h-4.9v4.9h4.9Zm-13.6,0h-5v4.9h5Zm-13.7,0h-4.9v4.9h4.9Zm-13.7,0h-4.9v4.9h4.9Zm-13.6,0h-4.9v4.9h4.9Zm-13.7,0h-4.9v4.9h4.9Zm-13.6,0h-4.9v4.9h4.9Z"/><g class="cls-2"><path class="cls-3" d="M1252.9,1209.2l70.1-36.7v72.2Zm-20.8,10.8,91.9,48.9h20.1V1148.6H1324l-91.9,49.5Zm-168.3-15.9c-4.2,0-7.2-.9-9-2.9s-2.9-5.1-3-9.6.9-7.5,2.8-9.8,4.9-3.3,9.2-3.3,7.8,1.1,9.5,3.3,2.7,5.4,2.7,9.6-1,7.7-2.9,9.7-5.1,3-9.3,3m4.9-41.3c-7.8,0-13.4,1.8-16.9,5.3v-19.5h-19.5v41.5c0,10.1,2.5,17.5,7.5,22.3s13,7.2,23.8,7.2,19-2.6,24-7.7,7.5-12.2,7.5-21-2-15.8-6-20.7-10.8-7.4-20.4-7.4m-52.6,2.4v-16.6H997.5c-9.9,0-17.5,2-22.7,5.9s-7.9,10.8-7.9,20.3,2.4,16.2,7.2,20.2,12.3,6.1,22.5,6.2v16.2h19.5v-32H999c-4.3,0-7.5-.7-9.6-2s-3.2-4.1-3.2-8.2,1.1-6.7,3.3-8,5.4-2,9.5-2Z"/></g><path class="cls-4" d="M943.7,1264h-5v4.9h5Zm-13.7,0h-4.9v4.9H930Zm-13.7,0h-4.9v4.9h4.9Zm-13.6,0h-4.9v4.9h4.9Zm-13.7,0h-4.9v4.9H889Zm-13.6,0h-4.9v4.9h4.9Zm-13.7,0h-4.9v4.9h4.9Zm-13.6,0h-4.9v4.9h4.9Zm95.6-13.6h-5v4.9h5Zm-95.6,0h-4.9v4.9h4.9Zm95.6-13.7h-5v4.9h5Zm-54.7,0h-4.9v4.9H889Zm-40.9,0h-4.9v4.9h4.9Zm95.6-13.6h-5v4.9h5Zm-95.6,0h-4.9v4.9h4.9Zm95.6-13.7h-5v4.9h5Zm-54.7,0h-4.9v4.9H889Zm-40.9,0h-4.9v4.9h4.9Zm95.6-13.6h-5v4.9h5Zm-27.4,0h-4.9v4.9h4.9Zm-13.6,0h-4.9v4.9h4.9Zm-13.7,0h-4.9v4.9H889Zm-40.9,0h-4.9v4.9h4.9Zm95.6-13.7h-5v4.9h5Zm-27.4,0h-4.9v4.9h4.9Zm-68.2,0h-4.9v4.9h4.9Zm95.6-13.6h-5v4.9h5Zm-27.4,0h-4.9v4.9h4.9Zm-13.6,0h-4.9v4.9h4.9Zm-13.7,0h-4.9v4.9H889Zm-13.6,0h-4.9v4.9h4.9Zm-27.3,0h-4.9v4.9h4.9Zm95.6-13.7h-5v4.9h5Zm-95.6,0h-4.9v4.9h4.9Zm95.6-13.6h-5v4.9h5Zm-13.7,0h-4.9v4.9H930Zm-13.7,0h-4.9v4.9h4.9Zm-13.6,0h-4.9v4.9h4.9Zm-13.7,0h-4.9v4.9H889Zm-13.6,0h-4.9v4.9h4.9Zm-13.7,0h-4.9v4.9h4.9Zm-13.6,0h-4.9v4.9h4.9Z"/><g class="cls-2"><path class="cls-3" d="M787.1,1204.1c-4.1,0-7.1-.9-9-2.9s-2.9-5.1-3-9.6,1-7.5,2.8-9.8,5-3.3,9.2-3.3,7.8,1.1,9.6,3.3,2.6,5.4,2.6,9.6-1,7.7-2.9,9.7-5,3-9.3,3m4.9-41.3c-7.7,0-13.4,1.8-16.9,5.3v-19.5H755.6v41.5c0,10.1,2.6,17.5,7.6,22.3s12.9,7.2,23.7,7.2,19.1-2.6,24.1-7.7,7.4-12.2,7.4-21-2-15.8-6-20.7-10.8-7.4-20.4-7.4m-155.4,46.4,70.1-36.7v72.2ZM615.9,1220l91.9,48.9h20V1148.6h-20l-91.9,49.5Zm-110.3-71.4V1167h46.2c14.3,0,21.5,6.3,21.5,18.9v9.1c0,13.4-7.2,20.1-21.5,20.1H505.6v53.8H527v-35.6h24.8c13.6,0,24.1-3.3,31.7-9.7s11.2-16.1,11.2-28.9V1187c0-12.7-3.7-22.3-11.2-28.7s-18.1-9.7-31.7-9.7Zm-49.2,10.6a6,6,0,0,1,4.9,2,7.7,7.7,0,0,1,1.7,5.1c0,4.8-2.2,7.3-6.6,7.3s-6.2-2.5-6.2-7.3a7.6,7.6,0,0,1,1.6-5.1,5.6,5.6,0,0,1,4.6-2m0,27.3c14.6,0,21.9-6.7,21.9-20.2,0-6.4-1.6-11.4-4.9-14.9s-8.1-5.3-14.8-5.3a29.9,29.9,0,0,0-10.8,1.9,131.5,131.5,0,0,0-14.9,7.2l-33.8,19.1v17.5l72.6,26.7v-18l-58.1-19.3,22.8-12.2c.1,5.4,1.8,9.6,5.2,12.8s8.3,4.7,14.8,4.7m-158.5-8.9c-17.8,0-30.9,3.9-39.2,11.6s-12.5,18.5-12.5,32.2v3.5c0,14.1,4.2,24.9,12.7,32.6s21.6,11.4,39.4,11.4h26.3v-18.3h-26c-11.1,0-19.2-2.3-24-6.7s-7.3-10.7-7.3-18.8v-3.8c0-8.2,2.4-14.5,7.3-18.9s12.9-6.6,24-6.6h82.8v-18.2Zm-163.3,72.6,35.5-79.5,34.1,79.5Zm-23.6.7v18H228.7v-18L182,1148.6H159.4Z"/><path class="cls-3" d="M1503.9,980.7h-21.7l-5.6,48.1h18Zm-77-40.6c-4.1,0-7.2-.9-9-2.9s-2.9-5.1-3-9.6.9-7.5,2.8-9.8,4.9-3.3,9.2-3.3,7.8,1.1,9.5,3.3,2.7,5.4,2.7,9.6-1,7.7-2.9,9.7-5.1,3-9.3,3m4.9-41.3c-7.8,0-13.4,1.8-16.9,5.3V884.6h-19.5v41.5c0,10.1,2.5,17.5,7.5,22.3s13,7.2,23.8,7.2,19-2.6,24-7.7,7.5-12.2,7.5-21-2-15.8-6-20.7-10.8-7.4-20.4-7.4m-52.6,2.4V884.6h-18.6c-9.9,0-17.5,2-22.7,5.9s-7.9,10.8-7.9,20.3,2.4,16.2,7.2,20.2,12.3,6.1,22.5,6.2v16.2h19.5v-32h-17.1c-4.3,0-7.5-.7-9.6-2s-3.2-4.1-3.2-8.2,1.1-6.7,3.3-8,5.4-2,9.5-2Z"/></g><path class="cls-4" d="M1306.8,1000h-5v4.9h5Zm-13.7,0h-4.9v4.9h4.9Zm-13.6,0h-5v4.9h5Zm-13.7,0h-4.9v4.9h4.9Zm-13.6,0h-5v4.9h5Zm-13.7,0h-4.9v4.9h4.9Zm-13.7,0h-4.9v4.9h4.9Zm-13.6,0h-4.9v4.9h4.9Zm95.6-13.6h-5v4.9h5Zm-95.6,0h-4.9v4.9h4.9Zm95.6-13.7h-5v4.9h5Zm-54.6,0h-5v4.9h5Zm-41,0h-4.9v4.9h4.9Zm95.6-13.6h-5V964h5Zm-95.6,0h-4.9V964h4.9Zm95.6-13.7h-5v4.9h5Zm-54.6,0h-5v4.9h5Zm-41,0h-4.9v4.9h4.9Zm95.6-13.6h-5v4.9h5Zm-27.3,0h-5v4.9h5Zm-13.7,0h-4.9v4.9h4.9Zm-13.6,0h-5v4.9h5Zm-41,0h-4.9v4.9h4.9Zm95.6-13.7h-5V923h5Zm-27.3,0h-5V923h5Zm-68.3,0h-4.9V923h4.9Zm95.6-13.6h-5v4.9h5Zm-27.3,0h-5v4.9h5Zm-13.7,0h-4.9v4.9h4.9Zm-13.6,0h-5v4.9h5Zm-13.7,0h-4.9v4.9h4.9Zm-27.3,0h-4.9v4.9h4.9Zm95.6-13.7h-5v4.9h5Zm-95.6,0h-4.9v4.9h4.9Zm95.6-13.6h-5v4.9h5Zm-13.7,0h-4.9v4.9h4.9Zm-13.6,0h-5v4.9h5Zm-13.7,0h-4.9v4.9h4.9Zm-13.6,0h-5v4.9h5Zm-13.7,0h-4.9v4.9h4.9Zm-13.7,0h-4.9v4.9h4.9Zm-13.6,0h-4.9v4.9h4.9Z"/><g class="cls-2"><path class="cls-3" d="M1150.2,940.1c-4.1,0-7.1-.9-9-2.9s-2.9-5.1-3-9.6,1-7.5,2.8-9.8,5-3.3,9.2-3.3,7.8,1.1,9.6,3.3,2.6,5.4,2.6,9.6-.9,7.7-2.9,9.7-5,3-9.3,3m4.9-41.3c-7.7,0-13.4,1.8-16.9,5.3V884.6h-19.5v41.5c0,10.1,2.6,17.5,7.6,22.3s12.9,7.2,23.7,7.2,19.1-2.6,24.1-7.7,7.4-12.2,7.4-21-2-15.8-6-20.7-10.8-7.4-20.4-7.4m-84.2,65.4c0,17.2-8.5,25.8-25.3,25.8-8.2,0-14.2-2.5-18.2-7.5s-6-11.8-6-20.2v-5.4c0-8.3,1.9-14.9,5.9-20s10-7.7,18.3-7.7,15.4,2.5,19.4,7.6,5.9,11.7,5.9,20.1Zm0-40.3c-7.1-8.2-16.9-12.3-29.5-12.3s-23.6,4.2-30.6,12.5-10.5,19.5-10.5,33.3v4.4q0,20.7,11.7,33.3t33.6,12.6c15.3,0,26.8-3.9,34.6-11.8s11.8-18.6,11.8-32.5V884.6h-21.1ZM896.7,913.6c-17.8,0-30.9,3.9-39.2,11.6S845,943.7,845,957.4v3.5c0,14.1,4.2,24.9,12.7,32.6s21.6,11.4,39.4,11.4h26.3V986.6h-26c-11.1,0-19.2-2.3-24-6.7s-7.3-10.7-7.3-18.8v-3.8c0-8.2,2.4-14.5,7.3-18.9s12.9-6.6,24-6.6h82.8V913.6Zm-98.3,48.7c0,8.4-2,15.1-6,20.2s-10.1,7.5-18.2,7.5c-16.9,0-25.3-8.6-25.3-25.8v-7.3c0-8.4,2-15.1,5.9-20.1s10.4-7.6,19.4-7.6,14.3,2.6,18.3,7.7,5.9,11.7,5.9,20Zm-20-50.7c-12.6,0-22.5,4.1-29.5,12.3V884.6H727.8v78.8c0,13.9,3.9,24.7,11.7,32.5s19.4,11.8,34.7,11.8,25.8-4.2,33.6-12.6,11.7-19.5,11.7-33.3v-4.4q0-20.7-10.5-33.3c-7.1-8.3-17.3-12.5-30.6-12.5M582.2,980.7H560.5l-5.6,48.1h18Zm-82.3-64.2c0-10.2,5-15.3,14.9-15.3h21.7V884.6H514.3c-10.9,0-19.2,2.5-24.9,7.4s-8.6,13.1-8.6,24.5v4.9c0,11.5,2.9,19.7,8.6,24.7s14,7.3,24.9,7.3h22.2V936.9H514.8a16.8,16.8,0,0,1-10.8-3.4c-2.7-2.2-4.1-6.3-4.1-12.1ZM344.8,901.2V884.6H326.3c-10,0-17.6,2-22.8,5.9s-7.8,10.8-7.8,20.3,2.4,16.2,7.2,20.2,12.3,6.1,22.5,6.2v16.2h19.4v-32H327.7c-4.2,0-7.4-.7-9.5-2s-3.2-4.1-3.2-8.2,1.1-6.7,3.3-8,5.3-2,9.4-2Zm88.1,63c0,17.2-8.4,25.8-25.3,25.8-8.1,0-14.2-2.5-18.2-7.5s-6-11.8-6-20.2v-5.4c0-8.3,2-14.9,5.9-20s10.1-7.7,18.3-7.7,15.5,2.5,19.4,7.6,5.9,11.7,5.9,20.1Zm0-40.3q-10.5-12.3-29.4-12.3c-13.4,0-23.6,4.2-30.6,12.5s-10.6,19.5-10.6,33.3v4.4c0,13.8,3.9,24.9,11.8,33.3s19,12.6,33.5,12.6,26.9-3.9,34.7-11.8,11.8-18.6,11.8-32.5V884.6H432.9Zm-192.7-7.4c0-10.2,5-15.3,14.9-15.3h21.7V884.6H254.6c-10.9,0-19.3,2.5-25,7.4s-8.5,13.1-8.5,24.5v4.9c0,11.5,2.8,19.7,8.5,24.7s14.1,7.3,25,7.3h22.2V936.9H255.1c-4.5,0-8.1-1.2-10.8-3.4s-4.1-6.3-4.1-12.1ZM124.4,884.6v120.3h21.1V903h58.8V884.6Z"/><path class="cls-3" d="M1845.3,716.7h-21.6l-5.7,48.1h18ZM1763,652.5q0-15.3,15-15.3h21.6V620.6h-22.2c-10.9,0-19.2,2.5-24.9,7.4s-8.6,13.1-8.6,24.5v4.9c0,11.5,2.9,19.7,8.6,24.7s14,7.3,24.9,7.3h22.2V672.9H1778a17.1,17.1,0,0,1-10.9-3.4c-2.7-2.2-4.1-6.3-4.1-12.1Zm-127.5-8,70,36.7-70,35.5Zm-21.2,96.4h20.1l91.9-48.9V670.1l-91.9-49.5h-20.1ZM1507.1,620.6v54.1h55l-58.6,66.2h26.9l58.8-67.9V656.7h-60.9V620.6Zm-26.2,0h-19.1l-5.8,43.9h15.7ZM1411,668.7c0,8.2-1.9,14.9-5.9,20s-10,7.6-18.3,7.6-15.4-2.5-19.3-7.5-6-11.7-6-20.1v-7.3c0-17.2,8.5-25.8,25.3-25.8,8.2,0,14.2,2.5,18.2,7.5s6,11.7,6,20.1Zm-24.2-50.8c-15.3,0-26.8,3.9-34.6,11.7s-11.8,18.7-11.8,32.5v78.8h21.1V701.6c7.1,8.3,16.9,12.4,29.5,12.4s23.6-4.2,30.6-12.6,10.6-19.4,10.6-33.3v-4.3c0-13.9-4-25-11.8-33.3s-19-12.6-33.6-12.6m-192,98.8h-21.6l-5.7,48.1h18Zm-100.3,24.2c17.9,0,30.9-3.9,39.3-11.7s12.4-18.6,12.4-32.3v-3.5c0-13.9-4.2-24.7-12.7-32.4s-21.6-11.4-39.3-11.4h-26.4v18.2h26q16.8,0,24,6.6c4.9,4.4,7.3,10.7,7.3,18.9v4c0,8-2.4,14.2-7.3,18.6s-12.8,6.7-24,6.7H1011v18.3ZM952,634.6c5.6,0,9.8,1.7,12.6,5s4.2,8,4.2,13.8c0,12.4-5.5,18.6-16.4,18.6s-16.6-6.2-16.6-18.6q0-9,3.9-13.8c2.6-3.3,6.7-5,12.3-5m-34.9,17.5a28.6,28.6,0,0,0-.2,3.7c0,10,3.2,18,9.7,23.9s15.1,8.8,25.8,8.8,20.6-3,27.2-9.2,9.9-14.7,9.9-25.9-3.3-19.5-10.1-25.9-15.7-9.4-26.8-9.4a46.6,46.6,0,0,0-17.5,3.3c-5.5,2.1-12,5.7-19.5,10.5l-52.9,33.5v20.9l119.5,56.6V720.4L880.1,674.7ZM756.4,722.2l35.5-79.5,34,79.5Zm-23.7.7v18H850.5v-18L803.7,620.6H781.1Zm-133.6-6.2H577.5l-5.7,48.1h18Zm-82.3-64.2q0-15.3,15-15.3h21.6V620.6H531.2c-10.9,0-19.2,2.5-24.9,7.4s-8.6,13.1-8.6,24.5v4.9c0,11.5,2.9,19.7,8.6,24.7s14,7.3,24.9,7.3h22.2V672.9H531.8a17.1,17.1,0,0,1-10.9-3.4c-2.7-2.2-4.1-6.3-4.1-12.1Z"/></g><path class="cls-4" d="M473,736h-4.9v4.9H473Zm-13.7,0h-4.9v4.9h4.9Zm-13.6,0h-4.9v4.9h4.9ZM432,736h-4.9v4.9H432Zm-13.6,0h-4.9v4.9h4.9Zm-13.7,0h-4.9v4.9h4.9Zm-13.6,0h-4.9v4.9h4.9Zm-13.7,0h-4.9v4.9h4.9ZM473,722.4h-4.9v4.9H473Zm-95.6,0h-4.9v4.9h4.9ZM473,708.7h-4.9v4.9H473Zm-54.6,0h-4.9v4.9h4.9Zm-41,0h-4.9v4.9h4.9ZM473,695.1h-4.9V700H473Zm-95.6,0h-4.9V700h4.9ZM473,681.4h-4.9v4.9H473Zm-54.6,0h-4.9v4.9h4.9Zm-41,0h-4.9v4.9h4.9ZM473,667.8h-4.9v4.9H473Zm-27.3,0h-4.9v4.9h4.9Zm-13.7,0h-4.9v4.9H432Zm-13.6,0h-4.9v4.9h4.9Zm-41,0h-4.9v4.9h4.9ZM473,654.1h-4.9V659H473Zm-27.3,0h-4.9V659h4.9Zm-68.3,0h-4.9V659h4.9ZM473,640.5h-4.9v4.9H473Zm-27.3,0h-4.9v4.9h4.9Zm-13.7,0h-4.9v4.9H432Zm-13.6,0h-4.9v4.9h4.9Zm-13.7,0h-4.9v4.9h4.9Zm-27.3,0h-4.9v4.9h4.9ZM473,626.8h-4.9v4.9H473Zm-95.6,0h-4.9v4.9h4.9ZM473,613.2h-4.9v4.9H473Zm-13.7,0h-4.9v4.9h4.9Zm-13.6,0h-4.9v4.9h4.9Zm-13.7,0h-4.9v4.9H432Zm-13.6,0h-4.9v4.9h4.9Zm-13.7,0h-4.9v4.9h4.9Zm-13.6,0h-4.9v4.9h4.9Zm-13.7,0h-4.9v4.9h4.9Z"/><g class="cls-2"><path class="cls-3" d="M316.5,676.1c-4.2,0-7.2-.9-9.1-2.9s-2.8-5.1-3-9.6,1-7.5,2.9-9.8,4.9-3.3,9.2-3.3,7.7,1.1,9.5,3.3,2.6,5.4,2.6,9.6-.9,7.7-2.9,9.7-5,3-9.2,3m4.9-41.3c-7.8,0-13.4,1.8-17,5.3V620.6H285v41.5c0,10.1,2.5,17.5,7.5,22.3s13,7.2,23.8,7.2,19-2.6,24-7.7,7.5-12.2,7.5-21-2-15.8-6-20.7-10.8-7.4-20.4-7.4m-52.6,2.4V620.6H250.2c-9.9,0-17.5,2-22.7,5.9s-7.9,10.8-7.9,20.3S222,663,226.8,667s12.3,6.1,22.5,6.2v16.2h19.5v-32H251.7c-4.3,0-7.5-.7-9.6-2s-3.2-4.1-3.2-8.2,1.1-6.7,3.3-8,5.3-2,9.5-2ZM124.4,620.6V740.9h21.1V639h58.8V620.6Z"/><path class="cls-3" d="M1785.3,376.6h-21.7v23h21.7Zm0,77.4h-21.7v22.9h21.7Zm-80.9-65.5q0-15.3,15-15.3H1741V356.6h-22.2c-10.9,0-19.2,2.5-24.9,7.4s-8.6,13.1-8.6,24.5v4.9c0,11.5,2.9,19.7,8.6,24.7s14,7.3,24.9,7.3H1741V408.9h-21.6a17.1,17.1,0,0,1-10.9-3.4c-2.7-2.2-4.1-6.3-4.1-12.1Z"/></g><path class="cls-4" d="M1660.6,472h-4.9v4.9h4.9Zm-13.7,0H1642v4.9h4.9Zm-13.6,0h-4.9v4.9h4.9Zm-13.7,0h-4.9v4.9h4.9Zm-13.6,0h-4.9v4.9h4.9Zm-13.7,0h-4.9v4.9h4.9Zm-13.6,0h-4.9v4.9h4.9Zm-13.7,0h-4.9v4.9h4.9Zm95.6-13.6h-4.9v4.9h4.9Zm-95.6,0h-4.9v4.9h4.9Zm95.6-13.7h-4.9v4.9h4.9Zm-54.6,0h-4.9v4.9h4.9Zm-41,0h-4.9v4.9h4.9Zm95.6-13.6h-4.9V436h4.9Zm-95.6,0h-4.9V436h4.9Zm95.6-13.7h-4.9v4.9h4.9Zm-54.6,0h-4.9v4.9h4.9Zm-41,0h-4.9v4.9h4.9Zm95.6-13.6h-4.9v4.9h4.9Zm-27.3,0h-4.9v4.9h4.9Zm-13.7,0h-4.9v4.9h4.9Zm-13.6,0h-4.9v4.9h4.9Zm-41,0h-4.9v4.9h4.9Zm95.6-13.7h-4.9V395h4.9Zm-27.3,0h-4.9V395h4.9Zm-68.3,0h-4.9V395h4.9Zm95.6-13.6h-4.9v4.9h4.9Zm-27.3,0h-4.9v4.9h4.9Zm-13.7,0h-4.9v4.9h4.9Zm-13.6,0h-4.9v4.9h4.9Zm-13.7,0h-4.9v4.9h4.9Zm-27.3,0h-4.9v4.9h4.9Zm95.6-13.7h-4.9v4.9h4.9Zm-95.6,0h-4.9v4.9h4.9Zm95.6-13.6h-4.9v4.9h4.9Zm-13.7,0H1642v4.9h4.9Zm-13.6,0h-4.9v4.9h4.9Zm-13.7,0h-4.9v4.9h4.9Zm-13.6,0h-4.9v4.9h4.9Zm-13.7,0h-4.9v4.9h4.9Zm-13.6,0h-4.9v4.9h4.9Zm-13.7,0h-4.9v4.9h4.9Z"/><g class="cls-2"><path class="cls-3" d="M1447.3,380.5l70,36.7-70,35.5Zm-21.1,96.4h20l91.9-48.9V406.1l-91.9-49.5h-20ZM1284.4,373.2V356.6h-18.6c-9.9,0-17.5,2-22.7,5.9s-7.9,10.8-7.9,20.3,2.4,16.2,7.2,20.2,12.3,6.1,22.5,6.2v16.2h19.5v-32h-17.1c-4.3,0-7.5-.7-9.6-2s-3.2-4.1-3.2-8.2,1.1-6.7,3.3-8,5.3-2,9.5-2Zm90.4,61.1c0,8.4-2,15.1-6,20.2s-10,7.5-18.2,7.5c-16.8,0-25.3-8.6-25.3-25.8v-7.3c0-8.4,2-15.1,5.9-20.1s10.4-7.6,19.4-7.6,14.4,2.6,18.3,7.7,5.9,11.7,5.9,20Zm-20-50.7c-12.6,0-22.4,4.1-29.5,12.3V356.6h-21.1v78.8c0,13.9,3.9,24.7,11.8,32.5s19.3,11.8,34.6,11.8,25.8-4.2,33.6-12.6,11.7-19.5,11.7-33.3v-4.4q0-20.7-10.5-33.3c-7-8.3-17.2-12.5-30.6-12.5m-226.6-3.1,70.1,36.7-70.1,35.5Zm-21.1,96.4h20L1219,428V406.1l-91.9-49.5h-20ZM957.9,454H936.2v22.9h21.7Zm-80.7-65.5c0-10.2,5-15.3,14.9-15.3h21.7V356.6H891.6c-10.9,0-19.2,2.5-24.9,7.4s-8.6,13.1-8.6,24.5v4.9c0,11.5,2.9,19.7,8.6,24.7s14,7.3,24.9,7.3h22.2V408.9H892.1a16.8,16.8,0,0,1-10.8-3.4c-2.7-2.2-4.1-6.3-4.1-12.1Zm-47.3,88.4V356.6H808.8v102h-59v18.3ZM758.6,373.2V356.6H740c-10,0-17.5,2-22.8,5.9s-7.8,10.8-7.8,20.3,2.4,16.2,7.2,20.2,12.3,6.1,22.5,6.2v16.2h19.5v-32H741.4c-4.2,0-7.4-.7-9.5-2s-3.2-4.1-3.2-8.2,1.1-6.7,3.3-8,5.3-2,9.4-2Zm-119.3,61c0,8.9-2.1,15.7-6.4,20.3s-10.7,6.8-19,6.8-14.8-2.3-19.1-6.8-6.4-11.4-6.4-20.3v-3.5c0-9,2.2-15.7,6.8-20.2s11-6.7,19.4-6.7h2.5c14.8.5,22.2,9.4,22.2,26.9Zm-25.1-48.6c-15.1,0-26.8,4-34.8,12.1s-12.1,19.2-12.1,33.6v2.3c0,14.3,4.1,25.5,12.2,33.4s19.7,11.9,34.4,11.9,26.2-3.8,34.4-11.4,12.2-18.6,12.2-32.8v-2.2c0-13.3-3.7-22.9-11-28.7H693V385.6Zm-68.8-12.4V356.6H526.9c-10,0-17.6,2-22.8,5.9s-7.8,10.8-7.8,20.3,2.4,16.2,7.2,20.2,12.3,6.1,22.4,6.2v16.2h19.5v-32H528.3c-4.2,0-7.4-.7-9.5-2s-3.2-4.1-3.2-8.2,1.1-6.7,3.2-8,5.4-2,9.5-2Z"/></g><path class="cls-4" d="M473,472h-4.9v4.9H473Zm-13.7,0h-4.9v4.9h4.9Zm-13.6,0h-4.9v4.9h4.9ZM432,472h-4.9v4.9H432Zm-13.6,0h-4.9v4.9h4.9Zm-13.7,0h-4.9v4.9h4.9Zm-13.6,0h-4.9v4.9h4.9Zm-13.7,0h-4.9v4.9h4.9ZM473,458.4h-4.9v4.9H473Zm-95.6,0h-4.9v4.9h4.9ZM473,444.7h-4.9v4.9H473Zm-54.6,0h-4.9v4.9h4.9Zm-41,0h-4.9v4.9h4.9ZM473,431.1h-4.9V436H473Zm-95.6,0h-4.9V436h4.9ZM473,417.4h-4.9v4.9H473Zm-54.6,0h-4.9v4.9h4.9Zm-41,0h-4.9v4.9h4.9ZM473,403.8h-4.9v4.9H473Zm-27.3,0h-4.9v4.9h4.9Zm-13.7,0h-4.9v4.9H432Zm-13.6,0h-4.9v4.9h4.9Zm-41,0h-4.9v4.9h4.9ZM473,390.1h-4.9V395H473Zm-27.3,0h-4.9V395h4.9Zm-68.3,0h-4.9V395h4.9ZM473,376.5h-4.9v4.9H473Zm-27.3,0h-4.9v4.9h4.9Zm-13.7,0h-4.9v4.9H432Zm-13.6,0h-4.9v4.9h4.9Zm-13.7,0h-4.9v4.9h4.9Zm-27.3,0h-4.9v4.9h4.9ZM473,362.8h-4.9v4.9H473Zm-95.6,0h-4.9v4.9h4.9ZM473,349.2h-4.9v4.9H473Zm-13.7,0h-4.9v4.9h4.9Zm-13.6,0h-4.9v4.9h4.9Zm-13.7,0h-4.9v4.9H432Zm-13.6,0h-4.9v4.9h4.9Zm-13.7,0h-4.9v4.9h4.9Zm-13.6,0h-4.9v4.9h4.9Zm-13.7,0h-4.9v4.9h4.9Z"/><g class="cls-2"><path class="cls-3" d="M316.5,412.1c-4.2,0-7.2-.9-9.1-2.9s-2.8-5.1-3-9.6,1-7.5,2.9-9.8,4.9-3.3,9.2-3.3,7.7,1.1,9.5,3.3,2.6,5.4,2.6,9.6-.9,7.7-2.9,9.7-5,3-9.2,3m4.9-41.3c-7.8,0-13.4,1.8-17,5.3V356.6H285v41.5c0,10.1,2.5,17.5,7.5,22.3s13,7.2,23.8,7.2,19-2.6,24-7.7,7.5-12.2,7.5-21-2-15.8-6-20.7-10.8-7.4-20.4-7.4m-52.6,2.4V356.6H250.2c-9.9,0-17.5,2-22.7,5.9s-7.9,10.8-7.9,20.3S222,399,226.8,403s12.3,6.1,22.5,6.2v16.2h19.5v-32H251.7c-4.3,0-7.5-.7-9.6-2s-3.2-4.1-3.2-8.2,1.1-6.7,3.3-8,5.3-2,9.5-2ZM124.4,356.6V476.9h21.1V375h58.8V356.6Z"/><path class="cls-3" d="M1727.4,124.5c0-10.2,5-15.3,14.9-15.3H1764V92.6h-22.2c-11,0-19.3,2.5-25,7.4s-8.5,13.1-8.5,24.5v4.9c0,11.5,2.8,19.7,8.5,24.7s14,7.3,25,7.3H1764V144.9h-21.7c-4.5,0-8.1-1.2-10.8-3.4s-4.1-6.3-4.1-12.1Zm-47.3,88.4V92.6h-21.2v102H1600v18.3ZM1625.3,92.6h-19.1l-5.9,43.9H1616Z"/></g><path class="cls-4" d="M1474,212.9h4.9V208H1474Zm13.7,0h4.9V208h-4.9Zm13.6,0h4.9V208h-4.9Zm13.7,0h4.9V208H1515Zm13.6,0h4.9V208h-4.9Zm13.7,0h4.9V208h-4.9Zm13.6,0h4.9V208h-4.9Zm13.7,0h4.9V208h-4.9ZM1474,199.3h4.9v-4.9H1474Zm95.6,0h4.9v-4.9h-4.9ZM1474,185.6h4.9v-4.9H1474Zm41,0h4.9v-4.9H1515Zm54.6,0h4.9v-4.9h-4.9ZM1474,172h4.9v-4.9H1474Zm95.6,0h4.9v-4.9h-4.9ZM1474,158.3h4.9v-4.9H1474Zm41,0h4.9v-4.9H1515Zm54.6,0h4.9v-4.9h-4.9ZM1474,144.7h4.9v-4.9H1474Zm41,0h4.9v-4.9H1515Zm13.6,0h4.9v-4.9h-4.9Zm13.7,0h4.9v-4.9h-4.9Zm27.3,0h4.9v-4.9h-4.9ZM1474,131h4.9v-4.9H1474Zm68.3,0h4.9v-4.9h-4.9Zm27.3,0h4.9v-4.9h-4.9ZM1474,117.4h4.9v-4.9H1474Zm27.3,0h4.9v-4.9h-4.9Zm13.7,0h4.9v-4.9H1515Zm13.6,0h4.9v-4.9h-4.9Zm13.7,0h4.9v-4.9h-4.9Zm27.3,0h4.9v-4.9h-4.9ZM1474,103.7h4.9V98.8H1474Zm95.6,0h4.9V98.8h-4.9ZM1474,90.1h4.9V85.2H1474Zm13.7,0h4.9V85.2h-4.9Zm13.6,0h4.9V85.2h-4.9Zm13.7,0h4.9V85.2H1515Zm13.6,0h4.9V85.2h-4.9Zm13.7,0h4.9V85.2h-4.9Zm13.6,0h4.9V85.2h-4.9Zm13.7,0h4.9V85.2h-4.9Z"/><g class="cls-2"><path class="cls-3" d="M1418,148.1c-4.2,0-7.2-.9-9-2.9s-2.9-5.1-3-9.6.9-7.5,2.8-9.8,4.9-3.3,9.2-3.3,7.8,1.1,9.5,3.3,2.7,5.4,2.7,9.6-1,7.7-3,9.7-5,3-9.2,3m4.9-41.3c-7.8,0-13.4,1.8-16.9,5.3V92.6h-19.5v41.5c0,10.1,2.5,17.5,7.5,22.3s13,7.2,23.8,7.2,19-2.6,24-7.7,7.5-12.2,7.5-21-2-15.8-6-20.7-10.8-7.4-20.4-7.4m-52.6,2.4V92.6h-18.6c-9.9,0-17.5,2-22.7,5.9s-7.9,10.8-7.9,20.3,2.4,16.2,7.2,20.2,12.3,6.1,22.5,6.2v16.2h19.5v-32h-17.1c-4.3,0-7.5-.7-9.6-2s-3.2-4.1-3.2-8.2,1.1-6.7,3.3-8,5.3-2,9.5-2ZM1225.9,92.6V212.9h21.2V111h58.7V92.6Zm-184.1,31.9c0-10.2,4.9-15.3,14.9-15.3h21.6V92.6h-22.2c-10.9,0-19.2,2.5-24.9,7.4s-8.6,13.1-8.6,24.5v4.9c0,11.5,2.9,19.7,8.6,24.7s14,7.3,24.9,7.3h22.2V144.9h-21.6a17.1,17.1,0,0,1-10.9-3.4c-2.7-2.2-4-6.3-4-12.1Z"/></g><path class="cls-4" d="M897.4,212.9h4.9V208h-4.9Zm13.7,0H916V208h-4.9Zm13.6,0h4.9V208h-4.9Zm13.7,0h4.9V208h-4.9Zm13.6,0h4.9V208H952Zm13.7,0h4.9V208h-4.9Zm13.6,0h4.9V208h-4.9Zm13.7,0h4.9V208H993Zm-95.6-13.6h4.9v-4.9h-4.9Zm95.6,0h4.9v-4.9H993Zm-95.6-13.7h4.9v-4.9h-4.9Zm41,0h4.9v-4.9h-4.9Zm54.6,0h4.9v-4.9H993ZM897.4,172h4.9v-4.9h-4.9Zm95.6,0h4.9v-4.9H993Zm-95.6-13.7h4.9v-4.9h-4.9Zm41,0h4.9v-4.9h-4.9Zm54.6,0h4.9v-4.9H993Zm-95.6-13.6h4.9v-4.9h-4.9Zm41,0h4.9v-4.9h-4.9Zm13.6,0h4.9v-4.9H952Zm13.7,0h4.9v-4.9h-4.9Zm27.3,0h4.9v-4.9H993ZM897.4,131h4.9v-4.9h-4.9Zm68.3,0h4.9v-4.9h-4.9Zm27.3,0h4.9v-4.9H993Zm-95.6-13.6h4.9v-4.9h-4.9Zm27.3,0h4.9v-4.9h-4.9Zm13.7,0h4.9v-4.9h-4.9Zm13.6,0h4.9v-4.9H952Zm13.7,0h4.9v-4.9h-4.9Zm27.3,0h4.9v-4.9H993Zm-95.6-13.7h4.9V98.8h-4.9Zm95.6,0h4.9V98.8H993ZM897.4,90.1h4.9V85.2h-4.9Zm13.7,0H916V85.2h-4.9Zm13.6,0h4.9V85.2h-4.9Zm13.7,0h4.9V85.2h-4.9Zm13.6,0h4.9V85.2H952Zm13.7,0h4.9V85.2h-4.9Zm13.6,0h4.9V85.2h-4.9Zm13.7,0h4.9V85.2H993Z"/><g class="cls-2"><path class="cls-3" d="M841.4,148.1c-4.2,0-7.2-.9-9-2.9s-2.9-5.1-3-9.6.9-7.5,2.8-9.8,4.9-3.3,9.2-3.3,7.8,1.1,9.5,3.3,2.7,5.4,2.7,9.6-1,7.7-3,9.7-5,3-9.2,3m4.9-41.3c-7.8,0-13.4,1.8-16.9,5.3V92.6H809.9v41.5c0,10.1,2.5,17.5,7.5,22.3s13,7.2,23.8,7.2,19-2.6,24-7.7,7.5-12.2,7.5-21-2-15.8-6-20.7-10.8-7.4-20.4-7.4M727.6,90.1c-19.6,0-33.8,4.8-42.3,14.5s-12.8,24.7-12.8,44.8v63.5h21.1V150.5c0-10.2.9-18.3,2.8-24.4a24.3,24.3,0,0,1,10.2-13.7c4.9-3.1,11.9-4.7,21-4.7s16.1,1.6,21,4.7a24.2,24.2,0,0,1,10.2,13.8c1.9,6.1,2.8,14.2,2.8,24.3v62.4h21.2V149.4c0-20.1-4.3-35.1-12.9-44.8s-22.6-14.5-42.3-14.5M557.3,116.5l70,36.7-70,35.5Zm-21.2,96.4h20.1L648.1,164V142.1L556.2,92.6H536.1Z"/></g><path class="cls-4" d="M403.5,212.9h4.9V208h-4.9Zm13.6,0H422V208h-4.9Zm13.7,0h4.9V208h-4.9Zm13.6,0h4.9V208h-4.9Zm13.7,0H463V208h-4.9Zm13.6,0h4.9V208h-4.9Zm13.7,0h4.9V208h-4.9Zm13.6,0h4.9V208H499Zm-95.5-13.6h4.9v-4.9h-4.9Zm95.5,0h4.9v-4.9H499Zm-95.5-13.7h4.9v-4.9h-4.9Zm40.9,0h4.9v-4.9h-4.9Zm54.6,0h4.9v-4.9H499ZM403.5,172h4.9v-4.9h-4.9Zm95.5,0h4.9v-4.9H499Zm-95.5-13.7h4.9v-4.9h-4.9Zm40.9,0h4.9v-4.9h-4.9Zm54.6,0h4.9v-4.9H499Zm-95.5-13.6h4.9v-4.9h-4.9Zm40.9,0h4.9v-4.9h-4.9Zm13.7,0H463v-4.9h-4.9Zm13.6,0h4.9v-4.9h-4.9Zm27.3,0h4.9v-4.9H499ZM403.5,131h4.9v-4.9h-4.9Zm68.2,0h4.9v-4.9h-4.9Zm27.3,0h4.9v-4.9H499Zm-95.5-13.6h4.9v-4.9h-4.9Zm27.3,0h4.9v-4.9h-4.9Zm13.6,0h4.9v-4.9h-4.9Zm13.7,0H463v-4.9h-4.9Zm13.6,0h4.9v-4.9h-4.9Zm27.3,0h4.9v-4.9H499Zm-95.5-13.7h4.9V98.8h-4.9Zm95.5,0h4.9V98.8H499ZM403.5,90.1h4.9V85.2h-4.9Zm13.6,0H422V85.2h-4.9Zm13.7,0h4.9V85.2h-4.9Zm13.6,0h4.9V85.2h-4.9Zm13.7,0H463V85.2h-4.9Zm13.6,0h4.9V85.2h-4.9Zm13.7,0h4.9V85.2h-4.9Zm13.6,0h4.9V85.2H499Z"/><g class="cls-2"><path class="cls-3" d="M297.9,121.6c-17.8,0-30.9,3.9-39.2,11.6s-12.5,18.5-12.5,32.2v3.5c0,14.1,4.2,24.9,12.7,32.6s21.6,11.4,39.4,11.4h26.3V194.6h-26c-11.1,0-19.2-2.3-24-6.7s-7.3-10.7-7.3-18.8v-3.8c0-8.2,2.4-14.5,7.3-18.9s12.9-6.6,24-6.6h82.8V121.6ZM134.6,194.2l35.5-79.5,34.1,79.5Zm-23.6.7v18H228.7v-18L182,92.6H159.4Z"/></g></svg>